<svg width="24" height="23" viewBox="0 0 24 23" fill="none" xmlns="http://www.w3.org/2000/svg">
<path d="M23.0469 4.90503C22.6109 4.34793 21.9327 4.00883 21.2302 4.00883H6.47923L6.01902 2.21642C5.75258 1.17489 4.83216 0.448242 3.76641 0.448242H1.29579C0.884025 0.448242 0.544922 0.787346 0.544922 1.19911C0.544922 1.61088 0.884025 1.94999 1.29579 1.94999H3.76641C4.12973 1.94999 4.44461 2.1922 4.5415 2.55553L7.49654 14.3273C7.76298 15.3688 8.68341 16.0954 9.74916 16.0954H19.4136C20.4794 16.0954 21.424 15.3688 21.6662 14.3273L23.4829 6.86699C23.6524 6.18878 23.5071 5.46213 23.0469 4.90503ZM22.0053 6.52788L20.1887 13.9882C20.0918 14.3515 19.7769 14.5937 19.4136 14.5937H9.74916C9.38583 14.5937 9.07095 14.3515 8.97407 13.9882L6.86678 5.53479H21.2302C21.4725 5.53479 21.7147 5.6559 21.86 5.84968C22.0053 6.04345 22.078 6.28567 22.0053 6.52788Z" fill="white" stroke="white" stroke-width="0.4"/>
<path d="M7.9395 19.5834C7.9395 18.3132 8.98838 17.2643 10.2586 17.2643C11.5287 17.2643 12.5776 18.3132 12.5776 19.5834C12.5776 20.8536 11.5287 21.9024 10.2586 21.9024C8.98838 21.9024 7.9395 20.8536 7.9395 19.5834ZM9.06547 19.5834C9.06547 20.2509 9.591 20.7765 10.2586 20.7765C10.9019 20.7765 11.4516 20.2267 11.4516 19.5834C11.4516 18.9158 10.9261 18.3903 10.2586 18.3903C9.591 18.3903 9.06547 18.9158 9.06547 19.5834Z" fill="white" stroke="white" stroke-width="0.4"/>
<path d="M16.271 19.5834C16.271 18.3132 17.3199 17.2643 18.5901 17.2643C19.8566 17.2643 20.8859 18.3098 20.9092 19.5852C20.9082 20.8545 19.8597 21.9024 18.5901 21.9024C17.3199 21.9024 16.271 20.8536 16.271 19.5834ZM17.397 19.5834C17.397 20.2509 17.9225 20.7765 18.5901 20.7765C19.2334 20.7765 19.7832 20.2267 19.7832 19.5834C19.7832 18.9158 19.2577 18.3903 18.5901 18.3903C17.9225 18.3903 17.397 18.9158 17.397 19.5834Z" fill="white" stroke="white" stroke-width="0.4"/>
</svg>
